<svg width="37" height="37" viewBox="0 0 37 37" fill="none" xmlns="http://www.w3.org/2000/svg">
<path d="M12.7188 31.2188C13.3573 31.2188 13.875 30.7011 13.875 30.0625C13.875 29.4239 13.3573 28.9062 12.7188 28.9062C12.0802 28.9062 11.5625 29.4239 11.5625 30.0625C11.5625 30.7011 12.0802 31.2188 12.7188 31.2188Z" stroke="white" stroke-width="1.5" stroke-linecap="round" stroke-linejoin="round"/>
<path d="M28.9062 31.2188C29.5448 31.2188 30.0625 30.7011 30.0625 30.0625C30.0625 29.4239 29.5448 28.9062 28.9062 28.9062C28.2677 28.9062 27.75 29.4239 27.75 30.0625C27.75 30.7011 28.2677 31.2188 28.9062 31.2188Z" stroke="white" stroke-width="1.5" stroke-linecap="round" stroke-linejoin="round"/>
<path d="M3.46875 5.78125H8.09375L11.5625 25.4375H30.0625" stroke="white" stroke-width="1.5" stroke-linecap="round" stroke-linejoin="round"/>
<path d="M11.5625 20.8125H29.5884C29.7221 20.8126 29.8517 20.7663 29.9552 20.6816C30.0586 20.5969 30.1295 20.4789 30.1557 20.3478L32.237 9.94158C32.2538 9.85767 32.2517 9.77108 32.231 9.68805C32.2103 9.60503 32.1713 9.52764 32.1171 9.46148C32.0628 9.39531 31.9945 9.34202 31.9172 9.30545C31.8398 9.26888 31.7553 9.24994 31.6697 9.25H9.25" stroke="white" stroke-width="1.5" stroke-linecap="round" stroke-linejoin="round"/>
</svg>
